<?xml version="1.0" encoding="UTF-8" standalone="no"?>
<svg
   viewBox="0 0 32 32"
   version="1.1"
   id="svg2"
   sodipodi:docname="icon.svg"
   xml:space="preserve"
   inkscape:version="1.4.4 (dcaf3e7d9e, 2026-05-05)"
   xmlns:inkscape="http://www.inkscape.org/namespaces/inkscape"
   xmlns:sodipodi="http://sodipodi.sourceforge.net/DTD/sodipodi-0.dtd"
   xmlns="http://www.w3.org/2000/svg"
   xmlns:svg="http://www.w3.org/2000/svg"
   xmlns:rdf="http://www.w3.org/1999/02/22-rdf-syntax-ns#"
   xmlns:cc="http://creativecommons.org/ns#"
   xmlns:dc="http://purl.org/dc/elements/1.1/"><defs
     id="defs2" /><sodipodi:namedview
     id="namedview2"
     pagecolor="#ffffff"
     bordercolor="#000000"
     borderopacity="0.25"
     inkscape:showpageshadow="2"
     inkscape:pageopacity="0.0"
     inkscape:pagecheckerboard="0"
     inkscape:deskcolor="#d1d1d1"
     inkscape:zoom="13.8125"
     inkscape:cx="16.325792"
     inkscape:cy="20.995475"
     inkscape:window-width="1920"
     inkscape:window-height="1128"
     inkscape:window-x="0"
     inkscape:window-y="0"
     inkscape:window-maximized="1"
     inkscape:current-layer="svg2" /><title
     id="title1">file_type_json</title><path
     d="M 6.014,14.976 A 2.51,2.51 0 0 0 7.581,14.458 2.377,2.377 0 0 0 8.386,13.1 15.261,15.261 0 0 0 8.6,10.156 Q 8.612,8.071 8.675,7.409 A 5.236,5.236 0 0 1 9.093,5.723 3.025,3.025 0 0 1 9.848,4.705 3.046,3.046 0 0 1 11,4.125 6.762,6.762 0 0 1 12.544,4 h 0.7 V 5.96 H 12.857 A 2.338,2.338 0 0 0 11.134,6.428 3.4,3.4 0 0 0 10.709,8.52 36.054,36.054 0 0 1 10.572,12.653 4.734,4.734 0 0 1 9.804,14.713 4.567,4.567 0 0 1 8.1,16 a 3.809,3.809 0 0 1 1.992,1.754 8.861,8.861 0 0 1 0.618,3.865 q 0,2.435 0.05,2.9 a 1.755,1.755 0 0 0 0.504,1.181 2.639,2.639 0 0 0 1.592,0.337 h 0.387 V 28 h -0.7 A 5.655,5.655 0 0 1 10.77,27.8 2.97,2.97 0 0 1 9.446,26.87 3.353,3.353 0 0 1 8.765,25.24 24.175,24.175 0 0 1 8.6,22.006 16.469,16.469 0 0 0 8.386,18.9 2.408,2.408 0 0 0 7.581,17.539 2.489,2.489 0 0 0 6.014,17.015 Z"
     style="fill:#00acd7;fill-opacity:1"
     id="path1" /><path
     d="m 18.755,17.011 a 2.489,2.489 0 0 1 1.567,0.524 2.408,2.408 0 0 1 0.805,1.361 16.469,16.469 0 0 1 0.212,3.109 24.175,24.175 0 0 0 0.169,3.234 3.353,3.353 0 0 0 0.681,1.63 2.97,2.97 0 0 0 1.324,0.93 5.655,5.655 0 0 0 1.773,0.2 h 0.7 V 26.04 h -0.387 a 2.639,2.639 0 0 1 -1.592,-0.337 1.755,1.755 0 0 1 -0.506,-1.186 q -0.05,-0.462 -0.05,-2.9 A 8.861,8.861 0 0 0 22.833,17.752 3.809,3.809 0 0 0 20.841,16 a 4.567,4.567 0 0 0 1.7,-1.286 4.734,4.734 0 0 0 0.768,-2.06 36.054,36.054 0 0 0 0.137,-4.133 3.4,3.4 0 0 1 0.425,-2.092 2.338,2.338 0 0 1 1.723,-0.468 h 0.387 V 4 h -0.7 a 6.762,6.762 0 0 0 -1.54,0.125 3.046,3.046 0 0 0 -1.149,0.581 3.025,3.025 0 0 0 -0.755,1.018 5.236,5.236 0 0 0 -0.418,1.686 q -0.062,0.662 -0.075,2.747 a 15.261,15.261 0 0 1 -0.212,2.947 2.377,2.377 0 0 1 -0.805,1.355 2.51,2.51 0 0 1 -1.567,0.518 z"
     style="fill:#00acd7;fill-opacity:1"
     id="path2" /><style
     type="text/css"
     id="style1">
	.st0{fill:#2DBCAF;}
	.st1{fill:#5DC9E1;}
	.st2{fill:#FDDD00;}
	.st3{fill:#CE3262;}
	.st4{fill:#00ACD7;}
	.st5{fill:#FFFFFF;}
</style><metadata
     id="metadata2"><rdf:RDF><cc:Work
         rdf:about=""><dc:title>file_type_json</dc:title></cc:Work></rdf:RDF></metadata></svg>
