<svg width="16" height="16" viewBox="0 0 16 16" fill="none" xmlns="http://www.w3.org/2000/svg">
  <path d="M3 1.5C2.447 1.5 2 1.947 2 2.5V13.5C2 14.053 2.447 14.5 3 14.5H13C13.553 14.5 14 14.053 14 13.5V5.5L10 1.5H3Z" fill="#00ACD7"/>
  
  <path d="M10 1.5V4.5C10 5.053 10.447 5.5 11 5.5H14L10 1.5Z" fill="#0088AA"/>

  <path d="M6.5 6C5.947 6 5.5 6.447 5.5 7V7.75C5.5 8.25 5 8.5 4.5 8.5C5 8.5 5.5 8.75 5.5 9.25V10C5.5 10.553 5.947 11 6.5 11" stroke="#FFFFFF" stroke-width="1" stroke-linecap="round" stroke-linejoin="round"/>
  
  <path d="M9.5 6C10.053 6 10.5 6.447 10.5 7V7.75C10.5 8.25 11 8.5 11.5 8.5C11 8.5 10.5 8.75 10.5 9.25V10C10.5 10.553 10.053 11 9.5 11" stroke="#FFFFFF" stroke-width="1" stroke-linecap="round" stroke-linejoin="round"/>
</svg>
